<?xml version="1.0" encoding="UTF-8"?>
<svg xmlns="http://www.w3.org/2000/svg" viewBox="0 0 24 24"><path fill="#3D3935" fill-rule="evenodd" d="M8 4.75c-.138 0-.25.11-.25.25v14c0 .14.112.25.25.25h8c.138 0 .25-.11.25-.25V5c0-.14-.112-.25-.25-.25h-2.293a.753.753 0 0 1-.707 1h-2a.753.753 0 0 1-.707-1H8zM6.25 5c0-.97.784-1.75 1.75-1.75h8c.966 0 1.75.78 1.75 1.75v14c0 .96-.784 1.75-1.75 1.75H8c-.966 0-1.75-.79-1.75-1.75V5zM12 16.25c.414 0 .75.33.75.75v.01c0 .41-.336.75-.75.75s-.75-.34-.75-.75V17c0-.42.336-.75.75-.75z" clip-rule="evenodd" style="fill: #da291c;"/></svg>