<?xml version="1.0" encoding="UTF-8"?>
<svg xmlns="http://www.w3.org/2000/svg" viewBox="0 0 24 24"><path fill="#3d3935" d="M12 2.235c-5.384 0-9.765 4.381-9.765 9.765S6.616 21.765 12 21.765s9.765-4.381 9.765-9.765S17.384 2.235 12 2.235zm7.353 6.01h-3.915a17.82 17.82 0 0 0-1.527-4.278 8.284 8.284 0 0 1 5.442 4.278zM20.265 12c0 .782-.116 1.537-.321 2.255h-4.246c.193-1.498.197-3.012.003-4.51h4.243c.204.718.321 1.473.321 2.255zM12 20.265c-.024 0-.047-.003-.071-.004a16.347 16.347 0 0 1-1.825-4.506h3.791a16.353 16.353 0 0 1-1.825 4.506c-.023 0-.046.004-.07.004zm-2.19-6.01a16.146 16.146 0 0 1 .002-4.51h4.374c.211 1.497.214 3.014.003 4.51H9.81zM3.735 12c0-.783.116-1.537.321-2.255h4.243a17.547 17.547 0 0 0 .002 4.51H4.055A8.23 8.23 0 0 1 3.735 12zM12 3.735c.025 0 .048.003.073.004a16.338 16.338 0 0 1 1.822 4.506h-3.79a16.34 16.34 0 0 1 1.823-4.506c.024 0 .048-.004.072-.004zm-1.91.232a17.77 17.77 0 0 0-1.53 4.278H4.646a8.288 8.288 0 0 1 5.444-4.278zM4.646 15.755h3.912a17.79 17.79 0 0 0 1.534 4.279 8.288 8.288 0 0 1-5.446-4.279zm9.261 4.279a17.774 17.774 0 0 0 1.534-4.279h3.912a8.283 8.283 0 0 1-5.446 4.279z" style="fill: #da291c;"/></svg>