<?xml version="1.0" encoding="UTF-8"?>
<svg xmlns="http://www.w3.org/2000/svg" viewBox="0 0 24 24"><g fill="#3D3935"><path fill-rule="evenodd" d="M5 5c-.69 0-1.25.56-1.25 1.25v9c0 .69.56 1.25 1.25 1.25h14c.69 0 1.25-.56 1.25-1.25v-9C20.25 5.56 19.69 5 19 5H5zM2.25 6.25A2.75 2.75 0 0 1 5 3.5h14a2.75 2.75 0 0 1 2.75 2.75v9A2.75 2.75 0 0 1 19 18H5a2.75 2.75 0 0 1-2.75-2.75v-9z" clip-rule="evenodd" style="fill: #da291c;"/><path d="M17 19c.414 0 .75.33.75.75 0 .38-.282.69-.648.74L17 20.5H7a.753.753 0 0 1-.102-1.5H17z" style="fill: #da291c;"/></g></svg>